<?xml version="1.0" encoding="UTF-8" standalone="no"?>
<!-- Generator: Adobe Illustrator 16.0.0, SVG Export Plug-In . SVG Version: 6.00 Build 0)  -->

<svg
   xmlns:dc="http://purl.org/dc/elements/1.1/"
   xmlns:cc="http://creativecommons.org/ns#"
   xmlns:rdf="http://www.w3.org/1999/02/22-rdf-syntax-ns#"
   xmlns:svg="http://www.w3.org/2000/svg"
   xmlns="http://www.w3.org/2000/svg"
   xmlns:sodipodi="http://sodipodi.sourceforge.net/DTD/sodipodi-0.dtd"
   xmlns:inkscape="http://www.inkscape.org/namespaces/inkscape"
   version="1.1"
   id="Capa_1"
   x="0px"
   y="0px"
   width="611.962px"
   height="611.962px"
   viewBox="0 0 611.962 611.962"
   style="enable-background:new 0 0 611.962 611.962;"
   xml:space="preserve"
   inkscape:version="0.91 r13725"
   sodipodi:docname="tow.svg"><metadata
     id="metadata41"><rdf:RDF><cc:Work
         rdf:about=""><dc:format>image/svg+xml</dc:format><dc:type
           rdf:resource="http://purl.org/dc/dcmitype/StillImage" /><dc:title></dc:title></cc:Work></rdf:RDF></metadata><defs
     id="defs39"><inkscape:path-effect
       effect="spiro"
       id="path-effect4550"
       is_visible="true" /><inkscape:path-effect
       effect="spiro"
       id="path-effect4544"
       is_visible="true" /></defs><sodipodi:namedview
     pagecolor="#ffffff"
     bordercolor="#666666"
     borderopacity="1"
     objecttolerance="10"
     gridtolerance="10"
     guidetolerance="10"
     inkscape:pageopacity="0"
     inkscape:pageshadow="2"
     inkscape:window-width="1600"
     inkscape:window-height="837"
     id="namedview37"
     showgrid="false"
     inkscape:zoom="1"
     inkscape:cx="249.94786"
     inkscape:cy="359.56721"
     inkscape:window-x="-8"
     inkscape:window-y="-8"
     inkscape:window-maximized="1"
     inkscape:current-layer="g4552"
     borderlayer="true"
     showguides="true"
     inkscape:guide-bbox="true"><sodipodi:guide
       position="240.39774,277.24703"
       orientation="0,1"
       id="guide4422" /><sodipodi:guide
       position="615.00003,115"
       orientation="0,1"
       id="guide4424" /><sodipodi:guide
       position="524.00002,137.00001"
       orientation="0,1"
       id="guide4470" /></sodipodi:namedview><g
     id="g3"
     style="fill:#ffcc00;fill-opacity:0.90288717"
     transform="translate(-1204,-187)"><path
       d="m 372.8,165.581 -50.3,65.9 32.2,-76.9 c 0.8,-4 4,-6.3 6.3,-6.3 0.8,0 1.5,0.8 3.1,1.5 l 4.7,2.3 4.7,2.3 c 4.1,2.6 3.3,6.4 -0.7,11.2 z m -68.2,72.2 14.1,-110.7 c 1.5,-7.8 -0.8,-13.3 -6.3,-13.3 l -7.1,0 c -1.5,0 -8.6,0 -8.6,0 -5.5,0 -7.8,4.7 -6.3,13.3 l 14.2,110.7 z m 19.6,120 c 4.7,11 6.3,18.101 6.3,28.2 l 0,91.8 0,12.601 c 0,4 -3.1,7.8 -7.8,7.8 l -40.8,0 c -4.7,0 -7.8,-3.101 -7.8,-7.8 l 0,-12.601 0,-13.3 -217.5,0 0,13.3 0,12.601 c 0,4 -3.1,7.8 -7.8,7.8 l -41,0 c -4.7,0 -7.8,-3.101 -7.8,-7.8 l 0,-12.601 0,-91.8 c 0,-10.3 1.5,-18.1 6.3,-28.2 l 51,-106.7 c 5.5,-12.6 21.2,-22.7 35.3,-22.7 l 144.4,0 c 14.1,0 29.9,10.3 36.2,22.7 l 51,106.7 z m -278.7,-4.6 238.5,0 -34.5,-73.7 c -7.1,-14.1 -13.3,-17.3 -28.2,-17.3 l -113,0 c -2.3,0 -4,0 -5.5,0 -11,1.5 -16.5,5.5 -21.9,17.3 l -35.4,73.7 z m 33,53.3 c 0,-14.1 -11.8,-25.1 -25.9,-25.1 -14.1,0 -25.1,11 -25.1,25.1 0,14.1 11,25.9 25.1,25.9 14.1,0 25.9,-11.7 25.9,-25.9 z m 224.4,0 c 0,-14.1 -11.8,-25.1 -25.9,-25.1 -14.1,0 -25.1,11 -25.1,25.1 0,14.1 11,25.9 25.1,25.9 14.1,0.1 25.9,-11.7 25.9,-25.9 z m -15.6,-168 -32.2,-76.9 c -1.5,-4 -4,-6.3 -6.3,-6.3 -0.8,0 -1.5,0 -2.3,0 -0.8,0 -0.8,0.8 -1.5,0.8 l -4.7,2.3 -4,3.1 c -4,2.3 -3.1,6.3 0.8,11 l 50.2,66 z m 322.4,150.7 -23.601,88.7 -3.1,11.8 c -0.8,4 -5.5,6.3 -9.4,5.5 l -39.199,-10.3 c -4,-0.801 -6.301,-5.5 -5.5,-9.4 l 3.1,-11.8 4,-12.601 -193.9,-51.8 0,-14.899 c 0,-6.301 -0.8,-13.301 -2.3,-19.601 10.3,-0.8 19.601,-7.8 22.7,-18.899 4,-13.301 -4.7,-27.4 -18.1,-31.4 -8.601,-1.5 -17.301,0.8 -23.601,6.3 l -18.1,-37.7 c 0.8,-0.8 1.5,-2.3 2.3,-3.1 l 76.9,-89.5 c 7.1,-8.6 18.899,-13.3 29.899,-14.1 4,0 7.101,0 10.3,0.8 l 137.4,35.3 c 14.1,4 26.7,18.1 29,31.4 l 21.9,116.2 c 2.502,11.8 1.802,19.8 -0.698,29.1 z m -33.7,-40.7 -14.9,-80 c -3.1,-15.6 -8.6,-20.4 -22.699,-24.4 L 429.3,214.181 c -5.5,-1.5 -9.399,-1.5 -13.3,-1.5 -6.3,0.8 -11.8,4.7 -18.1,11.8 l -53.4,61.9 231.5,62.1 z m -14.9,25.1 c -1.5,-0.8 -3.1,-0.8 -4.699,-0.8 -1.601,0 -3.101,0 -4.7,0 -10.3,0.8 -18.9,7.8 -21.2,18.9 -4,13.3 4,27.399 17.3,31.399 13.3,4 27.4,-4.699 31.4,-18.1 C 583,391.481 574.5,377.381 561.1,373.581 Z"
       id="path5"
       style="fill:#ffcc00;fill-opacity:0.90288717"
       inkscape:connector-curvature="0" /></g><g
     id="g7"
     style="fill:#ffcc00;fill-opacity:0.90288717"
     transform="translate(-1204,-187)" /><g
     id="g9"
     style="fill:#ffcc00;fill-opacity:0.90288717"
     transform="translate(-1204,-187)" /><g
     id="g11"
     style="fill:#ffcc00;fill-opacity:0.90288717"
     transform="translate(-1204,-187)" /><g
     id="g13"
     style="fill:#ffcc00;fill-opacity:0.90288717"
     transform="translate(-1204,-187)" /><g
     id="g15"
     style="fill:#ffcc00;fill-opacity:0.90288717"
     transform="translate(-1204,-187)" /><g
     id="g17"
     style="fill:#ffcc00;fill-opacity:0.90288717"
     transform="translate(-1204,-187)" /><g
     id="g19"
     style="fill:#ffcc00;fill-opacity:0.90288717"
     transform="translate(-1204,-187)" /><g
     id="g21"
     style="fill:#ffcc00;fill-opacity:0.90288717"
     transform="translate(-1204,-187)" /><g
     id="g23"
     style="fill:#ffcc00;fill-opacity:0.90288717"
     transform="translate(-1204,-187)" /><g
     id="g25"
     style="fill:#ffcc00;fill-opacity:0.90288717"
     transform="translate(-1204,-187)" /><g
     id="g27"
     style="fill:#ffcc00;fill-opacity:0.90288717"
     transform="translate(-1204,-187)" /><g
     id="g29"
     style="fill:#ffcc00;fill-opacity:0.90288717"
     transform="translate(-1204,-187)" /><g
     id="g31"
     style="fill:#ffcc00;fill-opacity:0.90288717"
     transform="translate(-1204,-187)" /><g
     id="g33"
     style="fill:#ffcc00;fill-opacity:0.90288717"
     transform="translate(-1204,-187)" /><g
     id="g35"
     style="fill:#ffcc00;fill-opacity:0.90288717"
     transform="translate(-1204,-187)" /><g
     id="g4387"
     transform="translate(-899,178)"><rect
       ry="19"
       y="282.96198"
       x="25"
       height="38"
       width="558"
       id="rect4212"
       style="opacity:1;fill:#ffcc00;fill-opacity:0.90288714;stroke:none;stroke-width:1;stroke-linecap:round;stroke-linejoin:round;stroke-miterlimit:4;stroke-dasharray:none;stroke-opacity:0.8032345" /><rect
       transform="matrix(0.50093827,-0.86548301,0.86548301,0.50093827,0,0)"
       ry="19"
       y="395.37115"
       x="-388.05774"
       height="38"
       width="558"
       id="rect4212-9"
       style="opacity:1;fill:#ffcc00;fill-opacity:0.90288714;stroke:none;stroke-width:1;stroke-linecap:round;stroke-linejoin:round;stroke-miterlimit:4;stroke-dasharray:none;stroke-opacity:0.8032345" /><rect
       transform="matrix(0.49715089,0.8676641,-0.8676641,0.49715089,0,0)"
       ry="19"
       y="-133.14638"
       x="133.26778"
       height="38"
       width="558"
       id="rect4212-96"
       style="opacity:1;fill:#ffcc00;fill-opacity:0.90288714;stroke:none;stroke-width:1;stroke-linecap:round;stroke-linejoin:round;stroke-miterlimit:4;stroke-dasharray:none;stroke-opacity:0.8032345" /><rect
       transform="matrix(0.85254506,-0.52265373,0.52265373,0.85254506,0,0)"
       ry="15"
       y="211.95807"
       x="-69.479858"
       height="125"
       width="30"
       id="rect4235"
       style="opacity:1;fill:#ffcc00;fill-opacity:0.90288714;stroke:none;stroke-width:1;stroke-linecap:round;stroke-linejoin:round;stroke-miterlimit:4;stroke-dasharray:none;stroke-opacity:0.8032345" /><rect
       transform="matrix(0.85254506,-0.52265373,0.52265373,0.85254506,0,0)"
       ry="15"
       y="494.54611"
       x="239.36519"
       height="125"
       width="30"
       id="rect4235-6"
       style="opacity:1;fill:#ffcc00;fill-opacity:0.90288714;stroke:none;stroke-width:1;stroke-linecap:round;stroke-linejoin:round;stroke-miterlimit:4;stroke-dasharray:none;stroke-opacity:0.8032345" /><rect
       transform="matrix(0.85254506,-0.52265373,0.52265373,0.85254506,0,0)"
       ry="15"
       y="224.1624"
       x="247.94778"
       height="125"
       width="30"
       id="rect4235-1"
       style="opacity:1;fill:#ffcc00;fill-opacity:0.90288714;stroke:none;stroke-width:1;stroke-linecap:round;stroke-linejoin:round;stroke-miterlimit:4;stroke-dasharray:none;stroke-opacity:0.8032345" /><rect
       transform="matrix(0.85254506,-0.52265373,0.52265373,0.85254506,0,0)"
       ry="15"
       y="486.56375"
       x="-75.958893"
       height="125"
       width="30"
       id="rect4235-18"
       style="opacity:1;fill:#ffcc00;fill-opacity:0.90288714;stroke:none;stroke-width:1;stroke-linecap:round;stroke-linejoin:round;stroke-miterlimit:4;stroke-dasharray:none;stroke-opacity:0.8032345" /><rect
       transform="matrix(-0.88592742,-0.4638239,0.4638239,-0.88592742,0,0)"
       ry="15"
       y="-320.42087"
       x="-261.78079"
       height="125"
       width="30"
       id="rect4235-4"
       style="opacity:1;fill:#ffcc00;fill-opacity:0.90288714;stroke:none;stroke-width:1;stroke-linecap:round;stroke-linejoin:round;stroke-miterlimit:4;stroke-dasharray:none;stroke-opacity:0.8032345" /><rect
       transform="matrix(-0.88592742,-0.4638239,0.4638239,-0.88592742,0,0)"
       ry="15"
       y="-331.11566"
       x="-575.53168"
       height="125"
       width="30"
       id="rect4235-4-7"
       style="opacity:1;fill:#ffcc00;fill-opacity:0.90288714;stroke:none;stroke-width:1;stroke-linecap:round;stroke-linejoin:round;stroke-miterlimit:4;stroke-dasharray:none;stroke-opacity:0.8032345" /><rect
       inkscape:transform-center-y="219.00001"
       inkscape:transform-center-x="104"
       transform="matrix(-0.88592742,-0.4638239,0.4638239,-0.88592742,0,0)"
       ry="15"
       y="-57.648712"
       x="-584.74182"
       height="125"
       width="30"
       id="rect4235-4-0"
       style="opacity:1;fill:#ffcc00;fill-opacity:0.90288714;stroke:none;stroke-width:1;stroke-linecap:round;stroke-linejoin:round;stroke-miterlimit:4;stroke-dasharray:none;stroke-opacity:0.8032345" /><rect
       transform="matrix(-0.88592742,-0.4638239,0.4638239,-0.88592742,0,0)"
       ry="15"
       y="-45.562428"
       x="-273.64868"
       height="125"
       width="30"
       id="rect4235-4-4"
       style="opacity:1;fill:#ffcc00;fill-opacity:0.90288714;stroke:none;stroke-width:1;stroke-linecap:round;stroke-linejoin:round;stroke-miterlimit:4;stroke-dasharray:none;stroke-opacity:0.8032345" /><rect
       transform="matrix(-0.01796413,-0.99983863,0.99983863,-0.01796413,0,0)"
       ry="15"
       y="370.18399"
       x="-481.81009"
       height="125"
       width="30"
       id="rect4235-4-8"
       style="opacity:1;fill:#ffcc00;fill-opacity:0.90288714;stroke:none;stroke-width:1;stroke-linecap:round;stroke-linejoin:round;stroke-miterlimit:4;stroke-dasharray:none;stroke-opacity:0.8032345" /><rect
       transform="matrix(-0.01796413,-0.99983863,0.99983863,-0.01796413,0,0)"
       ry="15"
       y="97.22802"
       x="-476.90588"
       height="125"
       width="30"
       id="rect4235-4-8-2"
       style="opacity:1;fill:#ffcc00;fill-opacity:0.90288714;stroke:none;stroke-width:1;stroke-linecap:round;stroke-linejoin:round;stroke-miterlimit:4;stroke-dasharray:none;stroke-opacity:0.8032345" /><rect
       transform="matrix(-0.01796413,-0.99983863,0.99983863,-0.01796413,0,0)"
       ry="15"
       y="103.86861"
       x="-162.97452"
       height="125"
       width="30"
       id="rect4235-4-8-3"
       style="opacity:1;fill:#ffcc00;fill-opacity:0.90288714;stroke:none;stroke-width:1;stroke-linecap:round;stroke-linejoin:round;stroke-miterlimit:4;stroke-dasharray:none;stroke-opacity:0.8032345" /><rect
       transform="matrix(-0.01796413,-0.99983863,0.99983863,-0.01796413,0,0)"
       ry="15"
       y="374.86081"
       x="-165.84312"
       height="125"
       width="30"
       id="rect4235-4-8-9"
       style="opacity:1;fill:#ffcc00;fill-opacity:0.90288714;stroke:none;stroke-width:1;stroke-linecap:round;stroke-linejoin:round;stroke-miterlimit:4;stroke-dasharray:none;stroke-opacity:0.8032345" /></g><g
     id="g4552"
     transform="matrix(1.1634027,0,0,1.1634027,-48.121237,-49.527117)"><path
       sodipodi:nodetypes="cccccccccccccccc"
       inkscape:connector-curvature="0"
       id="path4416"
       d="m 41.146021,418.70036 506.220739,0 12.46849,-11.22164 -1.24684,-124.68491 -89.77314,-128.42546 -129.67231,1.24685 0,178.96136 -19.94959,0.15406 -1.24684,-68.14585 -228.173393,-158.34984 -23.690134,33.66493 139.647097,144.6345 0,48.70414 -175.805721,-1.32388 0,84.43192 z"
       style="fill:#4f92c4;fill-rule:evenodd;stroke:none;stroke-width:1px;stroke-linecap:butt;stroke-linejoin:miter;stroke-opacity:1;fill-opacity:1" /><path
       sodipodi:nodetypes="ccccc"
       inkscape:connector-curvature="0"
       id="path4420"
       d="m 467.56925,185.68292 68.55981,99.59477 -130.88692,0 0,-98.48036 z"
       style="fill:#ffffff;fill-rule:evenodd;stroke:none;stroke-width:1.02608597px;stroke-linecap:butt;stroke-linejoin:miter;stroke-opacity:1;fill-opacity:1" /><circle
       r="68"
       cy="429.96198"
       cx="191"
       id="path4432"
       style="opacity:1;fill:#4f92c4;fill-opacity:1;stroke:none;stroke-width:1;stroke-linecap:round;stroke-linejoin:round;stroke-miterlimit:4;stroke-dasharray:none;stroke-opacity:0.8032345" /><circle
       r="68"
       cy="428.96198"
       cx="440"
       id="path4432-9"
       style="opacity:1;fill:#4f92c4;fill-opacity:1;stroke:none;stroke-width:1;stroke-linecap:round;stroke-linejoin:round;stroke-miterlimit:4;stroke-dasharray:none;stroke-opacity:0.8032345" /><circle
       r="46"
       cy="428.96198"
       cx="191"
       id="path4432-7"
       style="opacity:1;fill:#ffffff;fill-opacity:1;stroke:none;stroke-width:1;stroke-linecap:round;stroke-linejoin:round;stroke-miterlimit:4;stroke-dasharray:none;stroke-opacity:0.8032345" /><circle
       r="46"
       cy="428.96198"
       cx="440"
       id="path4432-7-2"
       style="opacity:1;fill:#ffffff;fill-opacity:1;stroke:none;stroke-width:1;stroke-linecap:round;stroke-linejoin:round;stroke-miterlimit:4;stroke-dasharray:none;stroke-opacity:0.8032345" /><rect
       ry="8.5"
       y="160.96198"
       x="89"
       height="56"
       width="17"
       id="rect4472"
       style="opacity:1;fill:#4f92c4;fill-opacity:1;stroke:none;stroke-width:1;stroke-linecap:round;stroke-linejoin:round;stroke-miterlimit:4;stroke-dasharray:none;stroke-opacity:0.8032345" /><ellipse
       ry="18.5"
       rx="19"
       cy="222.46198"
       cx="99"
       id="path4474"
       style="opacity:1;fill:#4f92c4;fill-opacity:1;stroke:none;stroke-width:1;stroke-linecap:round;stroke-linejoin:round;stroke-miterlimit:4;stroke-dasharray:none;stroke-opacity:0.8032345" /><ellipse
       ry="13.5"
       rx="13.864865"
       cy="222.64394"
       cx="99"
       id="path4474-8"
       style="opacity:1;fill:#4f92c4;fill-opacity:1;stroke:none;stroke-width:1;stroke-linecap:round;stroke-linejoin:round;stroke-miterlimit:4;stroke-dasharray:none;stroke-opacity:0.8032345" /><rect
       ry="3.737705"
       y="237.63081"
       x="94.563934"
       height="14.577044"
       width="7.6622958"
       id="rect4491"
       style="opacity:1;fill:#4f92c4;fill-opacity:1;stroke:none;stroke-width:1;stroke-linecap:round;stroke-linejoin:round;stroke-miterlimit:4;stroke-dasharray:none;stroke-opacity:0.8032345" /><circle
       r="24.855738"
       cy="268.09314"
       cx="98.114761"
       id="path4493"
       style="opacity:1;fill:#4f92c4;fill-opacity:1;stroke:none;stroke-width:1;stroke-linecap:round;stroke-linejoin:round;stroke-miterlimit:4;stroke-dasharray:none;stroke-opacity:0.8032345" /><path
       style="opacity:1;fill:#ffffff;fill-opacity:1;stroke:none;stroke-width:1;stroke-linecap:round;stroke-linejoin:round;stroke-miterlimit:4;stroke-dasharray:none;stroke-opacity:0.8032345"
       d="M 30.292969 230.19531 C 27.684362 230.19531 25.585938 232.29374 25.585938 234.90234 L 25.585938 265.27344 C 25.585938 267.88204 27.684362 269.98242 30.292969 269.98242 L 45.896484 269.98242 A 21.090011 21.090011 0 0 0 65.373047 283.0293 A 21.090011 21.090011 0 0 0 86.462891 261.9375 A 21.090011 21.090011 0 0 0 65.373047 240.84766 A 21.090011 21.090011 0 0 0 62.546875 241.0625 L 62.546875 234.90234 C 62.546875 232.29374 60.446498 230.19531 57.837891 230.19531 L 30.292969 230.19531 z "
       transform="matrix(0.8595476,0,0,0.8595476,41.362494,42.570915)"
       id="path4493-6" /><circle
       r="18.127869"
       cy="190.58345"
       cx="-272.46973"
       id="path4493-6-8"
       style="opacity:1;fill:#4f92c4;fill-opacity:1;stroke:none;stroke-width:1;stroke-linecap:round;stroke-linejoin:round;stroke-miterlimit:4;stroke-dasharray:none;stroke-opacity:0.8032345" /><path
       sodipodi:nodetypes="cscccc"
       inkscape:connector-curvature="0"
       inkscape:original-d="m 76.563588,284.68945 c 0,0 -2.519751,-9.32711 1.350266,-7.50125 3.870012,1.82587 8.685301,2.75053 8.685301,2.75053 l -2.197097,-11.14738 -14.917551,2.24144 z"
       inkscape:path-effect="#path-effect4550"
       id="path4548"
       d="m 76.563588,284.68945 c -0.754872,-1.17582 -1.046214,-2.64075 -0.798675,-4.01592 0.247538,-1.37517 1.031431,-2.64655 2.148941,-3.48533 1.418572,-1.06475 3.359465,-1.39509 5.050403,-0.85959 1.690938,0.5355 3.087846,1.92288 3.634898,3.61012 l -2.197097,-11.14738 -14.917551,2.24144 7.079081,13.65666 z"
       style="fill:#ffffff;fill-rule:evenodd;stroke:none;stroke-width:0.94135678px;stroke-linecap:butt;stroke-linejoin:miter;stroke-opacity:1" /></g><path
     style="opacity:0;fill:#eb0028;fill-opacity:1;stroke:none;stroke-width:1;stroke-linecap:round;stroke-linejoin:round;stroke-miterlimit:4;stroke-dasharray:none;stroke-opacity:1"
     d="m 158.05825,527.52822 c -12.77227,-2.41802 -28.38664,-10.96592 -38.632,-21.14861 -15.80014,-15.70348 -23.4139,-34.36978 -23.4139,-57.40273 l 0,-12.39408 -54.570492,0 -54.570491,0 0,-48.66053 0,-48.66053 102.413114,1.05671 102.413119,1.05671 -0.0315,-29.01912 -0.0316,-29.01914 -57.90286,-59.98174 -57.902867,-59.98174 -0.436164,12.79989 c -0.433223,12.71358 -0.405299,12.82405 4.141111,16.38215 13.056103,10.21794 11.364204,27.99715 -3.350907,35.21277 -3.072753,1.50673 -5.57097,3.52509 -5.55159,4.48525 0.01938,0.96014 3.329211,3.19217 7.355181,4.96002 10.540126,4.62836 15.786274,12.97021 15.774608,25.08307 -0.01076,11.22044 -4.131372,18.65022 -13.33469,24.04373 -11.849134,6.94406 -29.205287,3.84297 -36.59796,-6.53909 -2.687601,-3.77438 -2.808268,-4.59147 -0.910641,-6.16637 1.783252,-1.47995 3.037724,-0.96521 6.78845,2.78551 11.097083,11.09709 28.790211,8.18565 35.084801,-5.77325 2.986023,-6.62181 2.410403,-14.46397 -1.499688,-20.43151 -3.194487,-4.8754 -10.985602,-9.47604 -16.059232,-9.48293 -3.698025,-0.004 -4.111475,-0.52978 -4.111475,-5.21832 0,-4.50018 -0.684908,-5.49889 -5.010534,-7.30625 -13.04699,-5.45138 -16.53166,-21.93983 -6.944439,-32.85908 l 4.34344,-4.9469 0.210004,-23.43141 0.210002,-23.43142 -12.966025,-14.12522 C 33.891832,119.53191 30.368611,114.67748 31.234168,113.25363 36.516074,104.5648 56.377805,77.764949 57.290211,78.095653 57.919982,78.323914 117.65804,119.55067 190.04145,169.71067 l 131.6062,91.2 0.0774,34.38689 c 0.0426,18.91279 0.49451,36.90983 1.0042,39.99344 l 0.9267,5.60656 11.76504,0 11.76504,0 0,-104.65574 0,-104.65574 61.06868,0 c 33.58777,0 67.13092,-0.43031 74.5403,-0.95624 l 13.47163,-0.95624 52.29461,74.74645 52.2946,74.74646 1.04451,72.35404 1.04452,72.35406 -7.11062,6.3541 -7.11063,6.35409 -23.58847,0 -23.58848,0 0,13.29825 c 0,23.23736 -8.38424,42.0059 -25.90164,57.98213 -29.10429,26.54375 -74.58095,26.54375 -103.68525,0 -17.45962,-15.92355 -26.00765,-35.01863 -26.04447,-58.17965 l -0.0208,-13.10073 -67.30443,0 -67.30443,0 0.96219,7.84918 c 2.41396,19.69195 -6.44115,44.19188 -21.72532,60.10876 -18.88238,19.66403 -45.46945,28.09812 -72.46434,22.98748 z m 38.63877,-29.36024 c 11.15115,-5.26895 20.65874,-14.63138 26.09151,-25.69316 3.57925,-7.28775 4.04237,-9.94955 4.03367,-23.18382 -0.012,-17.81792 -2.64052,-24.923 -13.52776,-36.56232 -25.91914,-27.70967 -71.44264,-20.3663 -88.21022,14.22915 -3.7538,7.74497 -4.30608,10.59394 -4.32934,22.33317 -0.0226,11.41573 0.56709,14.72961 3.88962,21.85811 13.14152,28.19514 44.59833,39.99108 72.05252,27.01887 z m 288.73274,0.67659 c 10.90209,-4.99114 21.04055,-14.6963 26.71943,-25.57751 4.31878,-8.27513 4.71103,-10.20833 4.71949,-23.25996 0.009,-13.08062 -0.38917,-15.04398 -4.90472,-24.21638 -19.69703,-40.01035 -76.62586,-40.01035 -96.3229,0 -4.51223,9.16563 -4.91396,11.1454 -4.91396,24.21638 0,12.66897 0.46334,15.13922 4.21232,22.45767 13.69724,26.73862 44.51508,38.27166 70.49034,26.3798 z m 89.56572,-218.12406 c -0.61306,-1.02787 -18.59713,-27.26656 -39.9646,-58.3082 l -38.84996,-56.43934 -15.95281,0 c -8.77405,0 -25.14182,0.44069 -36.37282,0.97932 l -20.41999,0.97933 0,57.32887 0,57.32887 76.33742,0 c 60.66769,0 76.10861,-0.38362 75.22276,-1.86885 z M 75.130141,223.50832 c 9.49695,-4.91107 11.230651,-17.44146 3.484891,-25.18721 -7.481703,-7.48171 -18.439695,-6.44742 -24.953468,2.35527 -10.100919,13.65035 6.036248,30.81231 21.468577,22.83194 z"
     id="path4569"
     inkscape:connector-curvature="0" /><path
     style="opacity:0;fill:#eb0028;fill-opacity:1;stroke:none;stroke-width:1;stroke-linecap:round;stroke-linejoin:round;stroke-miterlimit:4;stroke-dasharray:none;stroke-opacity:1"
     d="m 158.05825,527.52822 c -12.77227,-2.41802 -28.38664,-10.96592 -38.632,-21.14861 -15.80014,-15.70348 -23.4139,-34.36978 -23.4139,-57.40273 l 0,-12.39408 -54.570492,0 -54.570491,0 0,-48.66053 0,-48.66053 102.413114,1.05671 102.413119,1.05671 -0.0315,-29.01912 -0.0316,-29.01914 -57.90286,-59.98174 -57.902867,-59.98174 -0.436164,12.79989 c -0.433223,12.71358 -0.405299,12.82405 4.141111,16.38215 13.056103,10.21794 11.364204,27.99715 -3.350907,35.21277 -3.072753,1.50673 -5.57097,3.52509 -5.55159,4.48525 0.01938,0.96014 3.329211,3.19217 7.355181,4.96002 10.540126,4.62836 15.786274,12.97021 15.774608,25.08307 -0.01076,11.22044 -4.131372,18.65022 -13.33469,24.04373 -11.849134,6.94406 -29.205287,3.84297 -36.59796,-6.53909 -2.687601,-3.77438 -2.808268,-4.59147 -0.910641,-6.16637 1.783252,-1.47995 3.037724,-0.96521 6.78845,2.78551 11.097083,11.09709 28.790211,8.18565 35.084801,-5.77325 2.986023,-6.62181 2.410403,-14.46397 -1.499688,-20.43151 -3.194487,-4.8754 -10.985602,-9.47604 -16.059232,-9.48293 -3.698025,-0.004 -4.111475,-0.52978 -4.111475,-5.21832 0,-4.50018 -0.684908,-5.49889 -5.010534,-7.30625 -13.04699,-5.45138 -16.53166,-21.93983 -6.944439,-32.85908 l 4.34344,-4.9469 0.210004,-23.43141 0.210002,-23.43142 -12.966025,-14.12522 C 33.891832,119.53191 30.368611,114.67748 31.234168,113.25363 36.516074,104.5648 56.377805,77.764949 57.290211,78.095653 57.919982,78.323914 117.65804,119.55067 190.04145,169.71067 l 131.6062,91.2 0.0774,34.38689 c 0.0426,18.91279 0.49451,36.90983 1.0042,39.99344 l 0.9267,5.60656 11.76504,0 11.76504,0 0,-104.65574 0,-104.65574 61.06868,0 c 33.58777,0 67.13092,-0.43031 74.5403,-0.95624 l 13.47163,-0.95624 52.29461,74.74645 52.2946,74.74646 1.04451,72.35404 1.04452,72.35406 -7.11062,6.3541 -7.11063,6.35409 -23.58847,0 -23.58848,0 0,13.29825 c 0,23.23736 -8.38424,42.0059 -25.90164,57.98213 -29.10429,26.54375 -74.58095,26.54375 -103.68525,0 -17.45962,-15.92355 -26.00765,-35.01863 -26.04447,-58.17965 l -0.0208,-13.10073 -67.30443,0 -67.30443,0 0.96219,7.84918 c 2.41396,19.69195 -6.44115,44.19188 -21.72532,60.10876 -18.88238,19.66403 -45.46945,28.09812 -72.46434,22.98748 z m 38.63877,-29.36024 c 11.15115,-5.26895 20.65874,-14.63138 26.09151,-25.69316 3.57925,-7.28775 4.04237,-9.94955 4.03367,-23.18382 -0.012,-17.81792 -2.64052,-24.923 -13.52776,-36.56232 -25.91914,-27.70967 -71.44264,-20.3663 -88.21022,14.22915 -3.7538,7.74497 -4.30608,10.59394 -4.32934,22.33317 -0.0226,11.41573 0.56709,14.72961 3.88962,21.85811 13.14152,28.19514 44.59833,39.99108 72.05252,27.01887 z m 288.73274,0.67659 c 10.90209,-4.99114 21.04055,-14.6963 26.71943,-25.57751 4.31878,-8.27513 4.71103,-10.20833 4.71949,-23.25996 0.009,-13.08062 -0.38917,-15.04398 -4.90472,-24.21638 -19.69703,-40.01035 -76.62586,-40.01035 -96.3229,0 -4.51223,9.16563 -4.91396,11.1454 -4.91396,24.21638 0,12.66897 0.46334,15.13922 4.21232,22.45767 13.69724,26.73862 44.51508,38.27166 70.49034,26.3798 z m 89.56572,-218.12406 c -0.61306,-1.02787 -18.59713,-27.26656 -39.9646,-58.3082 l -38.84996,-56.43934 -15.95281,0 c -8.77405,0 -25.14182,0.44069 -36.37282,0.97932 l -20.41999,0.97933 0,57.32887 0,57.32887 76.33742,0 c 60.66769,0 76.10861,-0.38362 75.22276,-1.86885 z M 75.130141,223.50832 c 9.49695,-4.91107 11.230651,-17.44146 3.484891,-25.18721 -7.481703,-7.48171 -18.439695,-6.44742 -24.953468,2.35527 -10.100919,13.65035 6.036248,30.81231 21.468577,22.83194 z"
     id="path4571"
     inkscape:connector-curvature="0" /><path
     style="opacity:0;fill:#eb0028;fill-opacity:1;stroke:none;stroke-width:1;stroke-linecap:round;stroke-linejoin:round;stroke-miterlimit:4;stroke-dasharray:none;stroke-opacity:1"
     d="m 158.05825,527.52822 c -12.77227,-2.41802 -28.38664,-10.96592 -38.632,-21.14861 -15.80014,-15.70348 -23.4139,-34.36978 -23.4139,-57.40273 l 0,-12.39408 -54.570492,0 -54.570491,0 0,-48.66053 0,-48.66053 102.413114,1.05671 102.413119,1.05671 -0.0315,-29.01912 -0.0316,-29.01914 -57.90286,-59.98174 -57.902867,-59.98174 -0.436164,12.79989 c -0.433223,12.71358 -0.405299,12.82405 4.141111,16.38215 13.056103,10.21794 11.364204,27.99715 -3.350907,35.21277 -3.072753,1.50673 -5.57097,3.52509 -5.55159,4.48525 0.01938,0.96014 3.329211,3.19217 7.355181,4.96002 10.540126,4.62836 15.786274,12.97021 15.774608,25.08307 -0.01076,11.22044 -4.131372,18.65022 -13.33469,24.04373 -11.849134,6.94406 -29.205287,3.84297 -36.59796,-6.53909 -2.687601,-3.77438 -2.808268,-4.59147 -0.910641,-6.16637 1.783252,-1.47995 3.037724,-0.96521 6.78845,2.78551 11.097083,11.09709 28.790211,8.18565 35.084801,-5.77325 2.986023,-6.62181 2.410403,-14.46397 -1.499688,-20.43151 -3.194487,-4.8754 -10.985602,-9.47604 -16.059232,-9.48293 -3.698025,-0.004 -4.111475,-0.52978 -4.111475,-5.21832 0,-4.50018 -0.684908,-5.49889 -5.010534,-7.30625 -13.04699,-5.45138 -16.53166,-21.93983 -6.944439,-32.85908 l 4.34344,-4.9469 0.210004,-23.43141 0.210002,-23.43142 -12.966025,-14.12522 C 33.891832,119.53191 30.368611,114.67748 31.234168,113.25363 36.516074,104.5648 56.377805,77.764949 57.290211,78.095653 57.919982,78.323914 117.65804,119.55067 190.04145,169.71067 l 131.6062,91.2 0.0774,34.38689 c 0.0426,18.91279 0.49451,36.90983 1.0042,39.99344 l 0.9267,5.60656 11.76504,0 11.76504,0 0,-104.65574 0,-104.65574 61.06868,0 c 33.58777,0 67.13092,-0.43031 74.5403,-0.95624 l 13.47163,-0.95624 52.29461,74.74645 52.2946,74.74646 1.04451,72.35404 1.04452,72.35406 -7.11062,6.3541 -7.11063,6.35409 -23.58847,0 -23.58848,0 0,13.29825 c 0,23.23736 -8.38424,42.0059 -25.90164,57.98213 -29.10429,26.54375 -74.58095,26.54375 -103.68525,0 -17.45962,-15.92355 -26.00765,-35.01863 -26.04447,-58.17965 l -0.0208,-13.10073 -67.30443,0 -67.30443,0 0.96219,7.84918 c 2.41396,19.69195 -6.44115,44.19188 -21.72532,60.10876 -18.88238,19.66403 -45.46945,28.09812 -72.46434,22.98748 z m 38.63877,-29.36024 c 11.15115,-5.26895 20.65874,-14.63138 26.09151,-25.69316 3.57925,-7.28775 4.04237,-9.94955 4.03367,-23.18382 -0.012,-17.81792 -2.64052,-24.923 -13.52776,-36.56232 -25.91914,-27.70967 -71.44264,-20.3663 -88.21022,14.22915 -3.7538,7.74497 -4.30608,10.59394 -4.32934,22.33317 -0.0226,11.41573 0.56709,14.72961 3.88962,21.85811 13.14152,28.19514 44.59833,39.99108 72.05252,27.01887 z m 288.73274,0.67659 c 10.90209,-4.99114 21.04055,-14.6963 26.71943,-25.57751 4.31878,-8.27513 4.71103,-10.20833 4.71949,-23.25996 0.009,-13.08062 -0.38917,-15.04398 -4.90472,-24.21638 -19.69703,-40.01035 -76.62586,-40.01035 -96.3229,0 -4.51223,9.16563 -4.91396,11.1454 -4.91396,24.21638 0,12.66897 0.46334,15.13922 4.21232,22.45767 13.69724,26.73862 44.51508,38.27166 70.49034,26.3798 z m 89.56572,-218.12406 c -0.61306,-1.02787 -18.59713,-27.26656 -39.9646,-58.3082 l -38.84996,-56.43934 -15.95281,0 c -8.77405,0 -25.14182,0.44069 -36.37282,0.97932 l -20.41999,0.97933 0,57.32887 0,57.32887 76.33742,0 c 60.66769,0 76.10861,-0.38362 75.22276,-1.86885 z M 75.130141,223.50832 c 9.49695,-4.91107 11.230651,-17.44146 3.484891,-25.18721 -7.481703,-7.48171 -18.439695,-6.44742 -24.953468,2.35527 -10.100919,13.65035 6.036248,30.81231 21.468577,22.83194 z"
     id="path4573"
     inkscape:connector-curvature="0" /><path
     style="opacity:0;fill:#eb0028;fill-opacity:1;stroke:none;stroke-width:1;stroke-linecap:round;stroke-linejoin:round;stroke-miterlimit:4;stroke-dasharray:none;stroke-opacity:1"
     d="m 158.05825,527.52822 c -12.77227,-2.41802 -28.38664,-10.96592 -38.632,-21.14861 -15.80014,-15.70348 -23.4139,-34.36978 -23.4139,-57.40273 l 0,-12.39408 -54.570492,0 -54.570491,0 0,-48.66053 0,-48.66053 102.413114,1.05671 102.413119,1.05671 -0.0315,-29.01912 -0.0316,-29.01914 -57.90286,-59.98174 -57.902867,-59.98174 -0.436164,12.79989 c -0.433223,12.71358 -0.405299,12.82405 4.141111,16.38215 13.056103,10.21794 11.364204,27.99715 -3.350907,35.21277 -3.072753,1.50673 -5.57097,3.52509 -5.55159,4.48525 0.01938,0.96014 3.329211,3.19217 7.355181,4.96002 10.540126,4.62836 15.786274,12.97021 15.774608,25.08307 -0.01076,11.22044 -4.131372,18.65022 -13.33469,24.04373 -11.849134,6.94406 -29.205287,3.84297 -36.59796,-6.53909 -2.687601,-3.77438 -2.808268,-4.59147 -0.910641,-6.16637 1.783252,-1.47995 3.037724,-0.96521 6.78845,2.78551 11.097083,11.09709 28.790211,8.18565 35.084801,-5.77325 2.986023,-6.62181 2.410403,-14.46397 -1.499688,-20.43151 -3.194487,-4.8754 -10.985602,-9.47604 -16.059232,-9.48293 -3.698025,-0.004 -4.111475,-0.52978 -4.111475,-5.21832 0,-4.50018 -0.684908,-5.49889 -5.010534,-7.30625 -13.04699,-5.45138 -16.53166,-21.93983 -6.944439,-32.85908 l 4.34344,-4.9469 0.210004,-23.43141 0.210002,-23.43142 -12.966025,-14.12522 C 33.891832,119.53191 30.368611,114.67748 31.234168,113.25363 36.516074,104.5648 56.377805,77.764949 57.290211,78.095653 57.919982,78.323914 117.65804,119.55067 190.04145,169.71067 l 131.6062,91.2 0.0774,34.38689 c 0.0426,18.91279 0.49451,36.90983 1.0042,39.99344 l 0.9267,5.60656 11.76504,0 11.76504,0 0,-104.65574 0,-104.65574 61.06868,0 c 33.58777,0 67.13092,-0.43031 74.5403,-0.95624 l 13.47163,-0.95624 52.29461,74.74645 52.2946,74.74646 1.04451,72.35404 1.04452,72.35406 -7.11062,6.3541 -7.11063,6.35409 -23.58847,0 -23.58848,0 0,13.29825 c 0,23.23736 -8.38424,42.0059 -25.90164,57.98213 -29.10429,26.54375 -74.58095,26.54375 -103.68525,0 -17.45962,-15.92355 -26.00765,-35.01863 -26.04447,-58.17965 l -0.0208,-13.10073 -67.30443,0 -67.30443,0 0.96219,7.84918 c 2.41396,19.69195 -6.44115,44.19188 -21.72532,60.10876 -18.88238,19.66403 -45.46945,28.09812 -72.46434,22.98748 z m 38.63877,-29.36024 c 11.15115,-5.26895 20.65874,-14.63138 26.09151,-25.69316 3.57925,-7.28775 4.04237,-9.94955 4.03367,-23.18382 -0.012,-17.81792 -2.64052,-24.923 -13.52776,-36.56232 -25.91914,-27.70967 -71.44264,-20.3663 -88.21022,14.22915 -3.7538,7.74497 -4.30608,10.59394 -4.32934,22.33317 -0.0226,11.41573 0.56709,14.72961 3.88962,21.85811 13.14152,28.19514 44.59833,39.99108 72.05252,27.01887 z m 288.73274,0.67659 c 10.90209,-4.99114 21.04055,-14.6963 26.71943,-25.57751 4.31878,-8.27513 4.71103,-10.20833 4.71949,-23.25996 0.009,-13.08062 -0.38917,-15.04398 -4.90472,-24.21638 -19.69703,-40.01035 -76.62586,-40.01035 -96.3229,0 -4.51223,9.16563 -4.91396,11.1454 -4.91396,24.21638 0,12.66897 0.46334,15.13922 4.21232,22.45767 13.69724,26.73862 44.51508,38.27166 70.49034,26.3798 z m 89.56572,-218.12406 c -0.61306,-1.02787 -18.59713,-27.26656 -39.9646,-58.3082 l -38.84996,-56.43934 -15.95281,0 c -8.77405,0 -25.14182,0.44069 -36.37282,0.97932 l -20.41999,0.97933 0,57.32887 0,57.32887 76.33742,0 c 60.66769,0 76.10861,-0.38362 75.22276,-1.86885 z M 75.130141,223.50832 c 9.49695,-4.91107 11.230651,-17.44146 3.484891,-25.18721 -7.481703,-7.48171 -18.439695,-6.44742 -24.953468,2.35527 -10.100919,13.65035 6.036248,30.81231 21.468577,22.83194 z"
     id="path4575"
     inkscape:connector-curvature="0" /><path
     style="opacity:0;fill:#eb0028;fill-opacity:1;stroke:none;stroke-width:1;stroke-linecap:round;stroke-linejoin:round;stroke-miterlimit:4;stroke-dasharray:none;stroke-opacity:1"
     d="m 158.05825,527.52822 c -12.77227,-2.41802 -28.38664,-10.96592 -38.632,-21.14861 -15.80014,-15.70348 -23.4139,-34.36978 -23.4139,-57.40273 l 0,-12.39408 -54.570492,0 -54.570491,0 0,-48.66053 0,-48.66053 102.413114,1.05671 102.413119,1.05671 -0.0315,-29.01912 -0.0316,-29.01914 -57.90286,-59.98174 -57.902867,-59.98174 -0.436164,12.79989 c -0.433223,12.71358 -0.405299,12.82405 4.141111,16.38215 13.056103,10.21794 11.364204,27.99715 -3.350907,35.21277 -3.072753,1.50673 -5.57097,3.52509 -5.55159,4.48525 0.01938,0.96014 3.329211,3.19217 7.355181,4.96002 10.540126,4.62836 15.786274,12.97021 15.774608,25.08307 -0.01076,11.22044 -4.131372,18.65022 -13.33469,24.04373 -11.849134,6.94406 -29.205287,3.84297 -36.59796,-6.53909 -2.687601,-3.77438 -2.808268,-4.59147 -0.910641,-6.16637 1.783252,-1.47995 3.037724,-0.96521 6.78845,2.78551 11.097083,11.09709 28.790211,8.18565 35.084801,-5.77325 2.986023,-6.62181 2.410403,-14.46397 -1.499688,-20.43151 -3.194487,-4.8754 -10.985602,-9.47604 -16.059232,-9.48293 -3.698025,-0.004 -4.111475,-0.52978 -4.111475,-5.21832 0,-4.50018 -0.684908,-5.49889 -5.010534,-7.30625 -13.04699,-5.45138 -16.53166,-21.93983 -6.944439,-32.85908 l 4.34344,-4.9469 0.210004,-23.43141 0.210002,-23.43142 -12.966025,-14.12522 C 33.891832,119.53191 30.368611,114.67748 31.234168,113.25363 36.516074,104.5648 56.377805,77.764949 57.290211,78.095653 57.919982,78.323914 117.65804,119.55067 190.04145,169.71067 l 131.6062,91.2 0.0774,34.38689 c 0.0426,18.91279 0.49451,36.90983 1.0042,39.99344 l 0.9267,5.60656 11.76504,0 11.76504,0 0,-104.65574 0,-104.65574 61.06868,0 c 33.58777,0 67.13092,-0.43031 74.5403,-0.95624 l 13.47163,-0.95624 52.29461,74.74645 52.2946,74.74646 1.04451,72.35404 1.04452,72.35406 -7.11062,6.3541 -7.11063,6.35409 -23.58847,0 -23.58848,0 0,13.29825 c 0,23.23736 -8.38424,42.0059 -25.90164,57.98213 -29.10429,26.54375 -74.58095,26.54375 -103.68525,0 -17.45962,-15.92355 -26.00765,-35.01863 -26.04447,-58.17965 l -0.0208,-13.10073 -67.30443,0 -67.30443,0 0.96219,7.84918 c 2.41396,19.69195 -6.44115,44.19188 -21.72532,60.10876 -18.88238,19.66403 -45.46945,28.09812 -72.46434,22.98748 z m 38.63877,-29.36024 c 11.15115,-5.26895 20.65874,-14.63138 26.09151,-25.69316 3.57925,-7.28775 4.04237,-9.94955 4.03367,-23.18382 -0.012,-17.81792 -2.64052,-24.923 -13.52776,-36.56232 -25.91914,-27.70967 -71.44264,-20.3663 -88.21022,14.22915 -3.7538,7.74497 -4.30608,10.59394 -4.32934,22.33317 -0.0226,11.41573 0.56709,14.72961 3.88962,21.85811 13.14152,28.19514 44.59833,39.99108 72.05252,27.01887 z m 288.73274,0.67659 c 10.90209,-4.99114 21.04055,-14.6963 26.71943,-25.57751 4.31878,-8.27513 4.71103,-10.20833 4.71949,-23.25996 0.009,-13.08062 -0.38917,-15.04398 -4.90472,-24.21638 -19.69703,-40.01035 -76.62586,-40.01035 -96.3229,0 -4.51223,9.16563 -4.91396,11.1454 -4.91396,24.21638 0,12.66897 0.46334,15.13922 4.21232,22.45767 13.69724,26.73862 44.51508,38.27166 70.49034,26.3798 z m 89.56572,-218.12406 c -0.61306,-1.02787 -18.59713,-27.26656 -39.9646,-58.3082 l -38.84996,-56.43934 -15.95281,0 c -8.77405,0 -25.14182,0.44069 -36.37282,0.97932 l -20.41999,0.97933 0,57.32887 0,57.32887 76.33742,0 c 60.66769,0 76.10861,-0.38362 75.22276,-1.86885 z M 75.130141,223.50832 c 9.49695,-4.91107 11.230651,-17.44146 3.484891,-25.18721 -7.481703,-7.48171 -18.439695,-6.44742 -24.953468,2.35527 -10.100919,13.65035 6.036248,30.81231 21.468577,22.83194 z"
     id="path4577"
     inkscape:connector-curvature="0" /><path
     style="opacity:0;fill:#eb0028;fill-opacity:1;stroke:none;stroke-width:1;stroke-linecap:round;stroke-linejoin:round;stroke-miterlimit:4;stroke-dasharray:none;stroke-opacity:1"
     d="m 158.05825,527.52822 c -12.77227,-2.41802 -28.38664,-10.96592 -38.632,-21.14861 -15.80014,-15.70348 -23.4139,-34.36978 -23.4139,-57.40273 l 0,-12.39408 -54.570492,0 -54.570491,0 0,-48.66053 0,-48.66053 102.413114,1.05671 102.413119,1.05671 -0.0315,-29.01912 -0.0316,-29.01914 -57.90286,-59.98174 -57.902867,-59.98174 -0.436164,12.79989 c -0.433223,12.71358 -0.405299,12.82405 4.141111,16.38215 13.056103,10.21794 11.364204,27.99715 -3.350907,35.21277 -3.072753,1.50673 -5.57097,3.52509 -5.55159,4.48525 0.01938,0.96014 3.329211,3.19217 7.355181,4.96002 10.540126,4.62836 15.786274,12.97021 15.774608,25.08307 -0.01076,11.22044 -4.131372,18.65022 -13.33469,24.04373 -11.849134,6.94406 -29.205287,3.84297 -36.59796,-6.53909 -2.687601,-3.77438 -2.808268,-4.59147 -0.910641,-6.16637 1.783252,-1.47995 3.037724,-0.96521 6.78845,2.78551 11.097083,11.09709 28.790211,8.18565 35.084801,-5.77325 2.986023,-6.62181 2.410403,-14.46397 -1.499688,-20.43151 -3.194487,-4.8754 -10.985602,-9.47604 -16.059232,-9.48293 -3.698025,-0.004 -4.111475,-0.52978 -4.111475,-5.21832 0,-4.50018 -0.684908,-5.49889 -5.010534,-7.30625 -13.04699,-5.45138 -16.53166,-21.93983 -6.944439,-32.85908 l 4.34344,-4.9469 0.210004,-23.43141 0.210002,-23.43142 -12.966025,-14.12522 C 33.891832,119.53191 30.368611,114.67748 31.234168,113.25363 36.516074,104.5648 56.377805,77.764949 57.290211,78.095653 57.919982,78.323914 117.65804,119.55067 190.04145,169.71067 l 131.6062,91.2 0.0774,34.38689 c 0.0426,18.91279 0.49451,36.90983 1.0042,39.99344 l 0.9267,5.60656 11.76504,0 11.76504,0 0,-104.65574 0,-104.65574 61.06868,0 c 33.58777,0 67.13092,-0.43031 74.5403,-0.95624 l 13.47163,-0.95624 52.29461,74.74645 52.2946,74.74646 1.04451,72.35404 1.04452,72.35406 -7.11062,6.3541 -7.11063,6.35409 -23.58847,0 -23.58848,0 0,13.29825 c 0,23.23736 -8.38424,42.0059 -25.90164,57.98213 -29.10429,26.54375 -74.58095,26.54375 -103.68525,0 -17.45962,-15.92355 -26.00765,-35.01863 -26.04447,-58.17965 l -0.0208,-13.10073 -67.30443,0 -67.30443,0 0.96219,7.84918 c 2.41396,19.69195 -6.44115,44.19188 -21.72532,60.10876 -18.88238,19.66403 -45.46945,28.09812 -72.46434,22.98748 z m 38.63877,-29.36024 c 11.15115,-5.26895 20.65874,-14.63138 26.09151,-25.69316 3.57925,-7.28775 4.04237,-9.94955 4.03367,-23.18382 -0.012,-17.81792 -2.64052,-24.923 -13.52776,-36.56232 -25.91914,-27.70967 -71.44264,-20.3663 -88.21022,14.22915 -3.7538,7.74497 -4.30608,10.59394 -4.32934,22.33317 -0.0226,11.41573 0.56709,14.72961 3.88962,21.85811 13.14152,28.19514 44.59833,39.99108 72.05252,27.01887 z m 288.73274,0.67659 c 10.90209,-4.99114 21.04055,-14.6963 26.71943,-25.57751 4.31878,-8.27513 4.71103,-10.20833 4.71949,-23.25996 0.009,-13.08062 -0.38917,-15.04398 -4.90472,-24.21638 -19.69703,-40.01035 -76.62586,-40.01035 -96.3229,0 -4.51223,9.16563 -4.91396,11.1454 -4.91396,24.21638 0,12.66897 0.46334,15.13922 4.21232,22.45767 13.69724,26.73862 44.51508,38.27166 70.49034,26.3798 z m 89.56572,-218.12406 c -0.61306,-1.02787 -18.59713,-27.26656 -39.9646,-58.3082 l -38.84996,-56.43934 -15.95281,0 c -8.77405,0 -25.14182,0.44069 -36.37282,0.97932 l -20.41999,0.97933 0,57.32887 0,57.32887 76.33742,0 c 60.66769,0 76.10861,-0.38362 75.22276,-1.86885 z M 75.130141,223.50832 c 9.49695,-4.91107 11.230651,-17.44146 3.484891,-25.18721 -7.481703,-7.48171 -18.439695,-6.44742 -24.953468,2.35527 -10.100919,13.65035 6.036248,30.81231 21.468577,22.83194 z"
     id="path4579"
     inkscape:connector-curvature="0" /></svg>